<?xml version="1.0" encoding="utf-8"?>
<svg width="1106.44053" height="357.92816" version="1.1" xmlns="http://www.w3.org/2000/svg">
  <desc>Created with Snap</desc>
  <g>
    <g>
      <title>Layer 1</title>
      <g stroke="null">
        <g stroke="null">
          <g stroke="null">
            <g stroke="null">
              <path stroke="null" d="m91.64858,188.567c-23.1196,-5.95143 -39.27113,-27.47206 -39.27113,-52.32635c0,-29.74633 23.16806,-53.94618 51.64612,-53.94618c8.12076,0 16.14807,2.03202 23.41037,5.91166c9.55038,-14.82435 25.67767,-23.89975 42.83651,-23.89975c20.22229,0 38.14959,12.00773 46.65804,30.90335c7.31076,-3.93388 15.3796,-5.99844 23.56614,-5.99844c28.47806,0 51.64958,24.20347 51.64958,53.94979c0,23.95037 -14.99537,44.80208 -36.7719,51.61044c0,0 0.83423,104.95641 0.83423,106.15321c0,16.11516 -74.90418,16.58158 -83.44379,16.58158c-8.53961,0 -83.44379,-0.47004 -83.44379,-16.58158c0,-0.39411 -0.16269,-1.46436 -0.16269,-1.46436l0,-83.49726c0,-1.89824 1.47115,-3.4313 3.28846,-3.4313c1.81731,0 3.285,1.53667 3.285,3.4313l0,62.46837c7.18615,3.90495 33.17882,9.03201 76.01879,9.03201c45.25612,0 71.6988,-5.72003 77.05033,-9.46951l0,-85.84384l2.49923,-3.33367c20.18076,-5.18852 34.27267,-23.96483 34.27267,-45.65539c0,-25.96069 -20.21883,-47.07997 -45.07266,-47.07997c-8.22807,0 -16.32807,2.39359 -23.4346,6.92044l-4.77692,-1.69215c-6.77076,-18.30627 -23.26152,-30.13321 -42.01266,-30.13321c-15.89884,0 -30.79036,8.938 -38.86959,23.33208l-4.50692,1.21849c-6.95769,-4.29545 -14.8673,-6.5661 -22.87037,-6.5661c-24.85383,0 -45.07266,21.11928 -45.07266,47.07997c0,21.69056 14.09191,40.47048 34.27267,45.659c1.76192,0.45196 2.835,2.31405 2.40231,4.15805c-0.43615,1.84039 -2.21538,2.95764 -3.98077,2.50929zm157.14681,94.49259c-18.1246,9.08263 -74.22918,9.21279 -77.05379,9.21279c-2.77615,0 -56.90419,-0.12655 -76.01879,-8.7319l0,15.91991c0,0 0.08308,0.99793 0.05192,0.94731c2.57192,4.18698 31.46882,10.23603 76.9811,10.23603c44.01689,0 72.49149,-5.65495 76.64533,-9.813l-0.60577,-17.77114z" style=""/>
              <path stroke="null" d="m81.13936,145.16419c0,1.32696 -1.02808,2.40444 -2.30192,2.40444c-1.27038,0 -2.30192,-1.07386 -2.30192,-2.40444c0,-19.57538 15.25153,-35.50613 33.99228,-35.50613c1.27038,0 2.30192,1.07386 2.30192,2.40082c0,1.33058 -1.02808,2.40444 -2.30192,2.40444c-16.20345,0 -29.38844,13.77218 -29.38844,30.70087z" style=""/>
              <path stroke="null" d="m264.29961,136.71793c1.69615,4.59555 2.565,9.45143 2.565,14.43024c0,1.32696 -1.02808,2.40444 -2.30192,2.40444s-2.30192,-1.07386 -2.30192,-2.40444c0,-4.38584 -0.75808,-8.65598 -2.25692,-12.70194c-0.45692,-1.23657 0.13154,-2.62861 1.31885,-3.10588c1.18038,-0.47727 2.52,0.13378 2.97692,1.37758z" style=""/>
              <path stroke="null" d="m207.75196,120.24844c-0.66461,-1.13171 -0.32192,-2.61053 0.76154,-3.30113c13.74922,-8.78976 32.27882,-7.28924 44.53266,3.39514c0.97961,0.84969 1.11115,2.36466 0.29423,3.38068c-0.45346,0.57128 -1.11115,0.86415 -1.76538,0.86415c-0.51923,0 -1.04192,-0.1844 -1.47115,-0.55682c-10.78615,-9.39719 -27.06921,-10.73138 -39.19151,-2.98656c-1.08346,0.69421 -2.49923,0.33988 -3.16038,-0.79545z" style=""/>
              <path stroke="null" d="m165.23391,87.21906c0,-1.32696 1.02808,-2.40444 2.30192,-2.40444c11.98038,0 23.05037,5.69834 30.38536,15.6415c0.77885,1.05217 0.58846,2.55991 -0.41538,3.36983c-0.41538,0.33988 -0.91038,0.50258 -1.40538,0.50258c-0.68885,0 -1.36731,-0.3218 -1.82077,-0.93647c-6.45576,-8.74998 -16.19999,-13.76857 -26.74383,-13.76857c-1.27385,0 -2.30192,-1.07386 -2.30192,-2.40444z" style=""/>
              <path stroke="null" d="m230.30041,223.07882c1.27385,0 2.30192,1.07386 2.30192,2.40444l0,41.47564c0,1.32696 -1.02808,2.40444 -2.30192,2.40444c-1.27038,0 -2.30192,-1.07386 -2.30192,-2.40444l0,-41.47564c0,-1.33058 1.02808,-2.40444 2.30192,-2.40444z" style=""/>
              <path stroke="null" d="m227.99848,198.15221c0,-1.32696 1.02808,-2.40444 2.30192,-2.40444c1.27038,0 2.30192,1.07386 2.30192,2.40444l0,17.31557c0,1.32696 -1.02808,2.40082 -2.30192,2.40082c-1.27385,0 -2.30192,-1.07386 -2.30192,-2.40082l0,-17.31557z" style=""/>
              <path stroke="null" d="m193.70159,272.30651l-0.02423,0c-1.26692,-0.01446 -2.29154,-1.09556 -2.27769,-2.42613l0.21462,-24.4421c0.01385,-1.31973 1.04192,-2.37913 2.29846,-2.37913l0.02423,0c1.26692,0.01446 2.29154,1.09917 2.27769,2.42613l-0.21115,24.4421c-0.01385,1.31973 -1.04192,2.37913 -2.30192,2.37913z" style=""/>
              <path stroke="null" d="m191.68697,236.83292l0.32538,-38.30829c0.01385,-1.31973 1.035,-2.37913 2.30192,-2.37913l0.02423,0c1.26692,0.01446 2.28461,1.09556 2.27769,2.42613l-0.32538,38.30468c-0.01385,1.31973 -1.035,2.37913 -2.30192,2.37913l-0.02423,0l0,0.00362c-1.26692,-0.01446 -2.28808,-1.09556 -2.27769,-2.42613z" style=""/>
              <path stroke="null" d="m158.32815,269.04154c-1.27038,0 -2.30192,-1.07386 -2.30192,-2.40082l0,-30.56347c0.00346,-1.33058 1.03154,-2.40444 2.30192,-2.40444c1.27038,0 2.30192,1.07386 2.30192,2.40444l0,30.56347c0,1.32696 -1.02808,2.40082 -2.30192,2.40082z" style=""/>
              <path stroke="null" d="m158.33161,229.68831c-1.27385,0 -2.30192,-1.07386 -2.30192,-2.40444l0,-28.81348c0,-1.32696 1.02808,-2.40444 2.30192,-2.40444c1.27038,0 2.30192,1.07386 2.30192,2.40444l0,28.81348c0,1.32696 -1.02808,2.40444 -2.30192,2.40444z" style=""/>
              <path stroke="null" d="m122.34548,221.45537c1.27038,0 2.30192,1.07386 2.30192,2.40444l0,41.50095c0,1.33058 -1.02808,2.40444 -2.30192,2.40444c-1.27385,0 -2.30192,-1.07386 -2.30192,-2.40444l0,-41.50095c0,-1.33058 1.02808,-2.40444 2.30192,-2.40444z" style=""/>
              <path stroke="null" d="m120.04356,199.74674c0,-1.32696 1.02808,-2.40444 2.30192,-2.40444c1.27038,0 2.30192,1.07386 2.30192,2.40444l0,15.97776c0,1.33058 -1.02808,2.40444 -2.30192,2.40444c-1.27385,0 -2.30192,-1.07386 -2.30192,-2.40444l0,-15.97776z" style=""/>
            </g>
          </g>
        </g>
        <g stroke="null"/>
        <g stroke="null"/>
        <g stroke="null"/>
        <g stroke="null"/>
        <g stroke="null"/>
        <g stroke="null"/>
        <g stroke="null"/>
        <g stroke="null"/>
        <g stroke="null"/>
        <g stroke="null"/>
        <g stroke="null"/>
        <g stroke="null"/>
        <g stroke="null"/>
        <g stroke="null"/>
        <g stroke="null"/>
      </g>
    </g>
    <path d="M 1032.71 221.16 L 1034.768 223.253 C 1032.849 230.084 1029.903 236.536 1025.925 242.601 C 1023.864 245.772 1021.549 248.765 1019.004 251.551 C 1017.047 253.684 1014.926 255.659 1012.662 257.451 C 1010.997 258.78 1009.206 259.937 1007.314 260.901 C 1004.251 262.437 1001.201 263.204 998.163 263.204 C 994.326 263.204 991.035 261.878 988.291 259.23 C 986.273 257.257 984.58 254.962 983.284 252.436 C 982.738 251.383 982.245 250.299 981.815 249.19 C 980.238 245.145 979.073 240.997 978.318 236.744 C 978.028 235.11 977.782 233.469 977.587 231.821 C 977.321 229.546 977.188 227.457 977.188 225.554 C 978.696 225.554 980.889 225.168 983.767 224.404 C 986.647 223.635 989.596 222.449 992.61 220.848 C 995.627 219.244 998.198 217.152 1000.323 214.573 C 1002.449 211.991 1003.51 208.958 1003.51 205.473 C 1003.522 204.417 1003.367 203.364 1003.049 202.36 C 1002.562 200.859 1001.649 199.541 1000.426 198.571 C 998.369 196.897 995.971 196.062 993.228 196.062 C 989.671 196.071 986.196 197.145 983.233 199.146 C 982.568 199.584 981.921 200.054 981.301 200.559 C 978.957 202.476 976.826 204.654 974.954 207.049 C 973.644 208.713 972.433 210.457 971.327 212.271 C 968.38 217.083 965.74 222.207 963.409 227.646 C 962.043 230.825 960.751 234.036 959.531 237.277 C 958.803 239.214 958.108 241.162 957.445 243.124 C 955.884 247.761 954.568 251.643 953.5 254.769 C 953.443 254.932 953.387 255.092 953.332 255.255 C 953.106 255.967 952.82 256.659 952.485 257.326 C 951.77 258.732 950.885 259.749 949.837 260.38 C 948.851 260.985 947.764 261.401 946.633 261.608 C 946.129 261.696 945.619 261.74 945.106 261.74 C 944.401 261.748 943.698 261.641 943.024 261.424 C 941.785 261.006 940.821 260.175 940.135 258.932 C 940.112 258.893 940.09 258.851 940.067 258.811 C 939.04 256.857 938.423 254.384 938.217 251.387 C 938.037 248.686 937.936 245.982 937.916 243.277 C 937.912 242.877 937.91 242.477 937.91 242.079 C 937.923 238.713 938.143 235.354 938.567 232.017 C 938.989 228.597 939.609 224.985 940.432 221.182 C 940.738 219.777 941.062 218.374 941.405 216.977 C 942.929 210.832 944.693 204.749 946.702 198.749 C 947.974 194.93 949.328 191.139 950.763 187.38 C 954.668 177.13 958.954 167.195 963.614 157.575 C 968.277 147.951 972.939 139.236 977.598 131.427 C 979.17 128.788 980.801 126.188 982.493 123.629 C 984.084 121.232 985.631 119.041 987.132 117.061 C 988.228 115.606 989.369 114.19 990.554 112.811 C 994.35 108.419 997.458 106.125 999.878 105.925 C 999.991 105.914 1000.107 105.91 1000.22 105.91 C 1001.824 105.91 1003.164 106.833 1004.242 108.683 C 1004.466 109.071 1004.667 109.471 1004.846 109.883 C 1005.901 112.282 1006.479 115.135 1006.581 118.446 C 1006.592 118.799 1006.598 119.152 1006.597 119.506 C 1006.597 124.245 1005.566 129.579 1003.51 135.507 C 1002.061 139.642 1000.288 143.653 998.204 147.501 C 997.127 149.503 995.982 151.468 994.77 153.39 C 991 159.386 986.544 165.032 981.403 170.333 C 976.262 175.631 970.678 180.164 964.643 183.928 C 960.119 195.225 956.727 206.206 954.465 216.874 C 953.728 220.319 953.086 223.786 952.532 227.268 C 952 230.675 951.613 233.862 951.37 236.83 C 951.178 239.13 951.078 241.44 951.07 243.752 C 953.264 238.173 955.905 232.038 958.988 225.345 C 962.073 218.651 965.603 212.237 969.578 206.102 C 973.556 199.964 977.874 194.944 982.533 191.041 C 987.196 187.136 992.064 185.183 997.135 185.183 C 1001.928 185.101 1006.544 187.005 1009.924 190.454 C 1009.979 190.51 1010.035 190.567 1010.09 190.622 C 1013.53 194.016 1015.458 198.686 1015.437 203.56 C 1015.437 203.638 1015.437 203.719 1015.437 203.8 C 1015.451 205.709 1015.219 207.612 1014.742 209.459 C 1014.204 211.525 1013.288 213.473 1012.043 215.2 C 1009.782 218.338 1007.04 220.848 1003.819 222.73 C 1001.741 223.952 999.572 225.001 997.326 225.863 C 996.285 226.261 995.226 226.61 994.154 226.913 C 990.933 227.819 988.291 228.273 986.235 228.273 C 986.353 229.19 986.649 230.72 987.13 232.865 C 987.242 233.356 987.354 233.847 987.47 234.338 C 987.919 236.239 988.465 238.115 989.105 239.958 C 989.523 241.163 989.971 242.361 990.452 243.542 C 991.147 245.271 991.981 246.935 992.944 248.523 C 993.645 249.675 994.426 250.771 995.283 251.805 C 996.006 252.686 996.866 253.442 997.828 254.039 C 999.173 254.851 1000.713 255.273 1002.276 255.255 C 1005.19 255.242 1008.043 254.419 1010.531 252.879 C 1011.609 252.228 1012.632 251.483 1013.586 250.654 C 1015.406 249.072 1017.099 247.342 1018.647 245.486 C 1020.399 243.398 1022.106 241.041 1023.765 238.418 C 1025.838 235.129 1027.738 231.731 1029.458 228.237 C 1030.608 225.909 1031.694 223.55 1032.71 221.16 Z M 432.231 280.566 C 429.215 280.566 425.684 278.646 421.64 274.813 C 419.819 273.072 418.077 271.241 416.431 269.327 C 414.765 267.404 413.071 265.297 411.353 263.001 C 410.554 261.928 409.766 260.848 408.992 259.752 C 406.15 255.722 403.421 251.612 400.808 247.424 C 399.145 244.762 397.519 242.071 395.933 239.358 C 391.615 231.968 387.639 224.578 384.006 217.187 C 382.495 214.117 381.019 211.029 379.573 207.928 C 378.258 205.091 377.042 202.392 375.931 199.833 C 375.57 198.996 375.211 198.156 374.856 197.316 C 371.018 210.981 367.316 224.404 363.75 237.581 C 360.187 250.758 356.829 262.715 353.674 273.453 C 350.248 273.453 347.128 272.476 344.317 270.524 C 343.42 269.915 342.617 269.176 341.93 268.33 C 340.723 266.826 340.075 264.937 340.101 262.995 C 340.105 262.372 340.155 261.752 340.248 261.138 C 340.337 260.514 340.473 259.854 340.644 259.154 C 340.788 258.581 340.951 258.014 341.13 257.451 C 341.817 255.289 342.433 253.302 342.98 251.49 C 346.408 240.473 349.769 230.084 353.057 220.324 C 355.461 213.191 357.893 206.065 360.345 198.949 C 361.136 196.663 361.929 194.373 362.722 192.088 C 365.877 183.021 369.134 174.027 372.491 165.105 C 375.85 156.179 379.379 147.185 383.081 138.121 C 385.952 131.102 388.883 124.107 391.873 117.14 C 392.91 114.718 393.958 112.3 395.009 109.883 C 392.614 110.282 390.235 110.797 387.885 111.425 C 385.383 112.098 383.06 112.882 380.919 113.775 C 380.611 113.904 380.302 114.035 379.996 114.171 C 378.622 114.779 377.259 115.41 375.907 116.065 C 374.697 116.651 373.576 117.222 372.543 117.778 C 371.585 118.29 370.644 118.832 369.715 119.401 C 367.11 121.002 365.328 121.807 364.369 121.807 C 364.193 121.804 364.021 121.78 363.849 121.733 C 363.357 121.606 362.744 121.317 362.003 120.865 C 360.974 120.237 360.049 119.469 359.226 118.564 C 359.025 118.342 358.836 118.109 358.658 117.864 C 358.295 117.35 358.082 116.875 358.016 116.439 C 358.001 116.345 357.995 116.254 357.994 116.158 C 359.662 115.441 361.342 114.742 363.027 114.064 C 364.758 113.366 366.601 112.643 368.55 111.896 C 369.213 111.642 369.875 111.39 370.536 111.138 C 373.676 109.961 376.865 108.937 380.097 108.066 C 382.176 107.503 384.268 106.993 386.371 106.537 C 392.13 105.281 398.093 104.655 404.262 104.655 C 409.932 104.671 415.584 105.318 421.115 106.585 C 421.497 106.67 421.878 106.759 422.257 106.851 C 428.357 108.316 433.978 110.616 439.12 113.754 C 444.26 116.891 448.409 120.935 451.562 125.885 C 454.715 130.835 456.29 136.796 456.29 143.769 C 456.31 146.77 455.975 149.765 455.292 152.689 C 454.561 155.787 453.335 158.746 451.665 161.443 C 448.579 166.393 444.535 170.544 439.529 173.89 C 434.527 177.237 429.079 179.92 423.182 181.943 C 417.999 183.733 412.7 185.165 407.325 186.237 C 406.785 186.343 406.244 186.446 405.703 186.544 C 403.052 187.027 400.39 187.451 397.721 187.817 C 395.195 188.161 392.796 188.422 390.524 188.603 C 390.376 188.614 390.225 188.625 390.073 188.635 C 386.506 188.904 383.62 189.065 381.418 189.129 C 380.806 189.148 380.197 189.158 379.586 189.159 C 383.197 195.436 386.76 201.742 390.27 208.077 C 390.754 208.953 391.238 209.827 391.718 210.703 C 395.558 217.674 399.737 224.612 404.262 231.516 C 408.788 238.418 414.134 245.353 420.303 252.327 C 426.472 259.3 433.944 266.411 442.717 273.661 C 441.958 275.342 440.634 276.842 438.754 278.164 C 438.602 278.269 438.45 278.372 438.298 278.474 C 437.556 278.965 436.777 279.39 435.962 279.744 C 435.041 280.137 434.139 280.389 433.256 280.5 C 432.917 280.542 432.574 280.566 432.231 280.566 Z M 639.725 313.823 C 638.629 313.823 637.567 313.23 636.538 312.045 C 635.859 311.267 635.263 310.419 634.764 309.509 C 634.545 309.111 634.347 308.7 634.172 308.28 C 634.079 308.05 633.986 307.819 633.895 307.589 C 633.552 306.718 633.371 306.158 633.353 305.912 C 633.353 305.899 633.35 305.887 633.35 305.873 C 634.235 302.725 635.157 299.588 636.117 296.462 C 637.089 293.304 638.052 290.339 639.005 287.572 C 640.855 282.203 642.707 276.696 644.559 271.048 C 645.419 268.408 646.223 265.748 646.968 263.075 C 647.739 260.329 648.498 257.413 649.255 254.325 C 649.511 253.277 649.762 252.228 650.007 251.177 C 650.732 248.078 651.408 244.967 652.04 241.847 C 653.188 236.232 654.361 229.894 655.559 222.835 C 657.481 211.54 659.399 197.525 661.318 180.791 C 661.457 179.537 661.728 178.629 662.14 178.072 C 662.286 177.886 662.474 177.74 662.685 177.645 C 663.219 177.376 664.044 177.24 665.156 177.237 C 665.179 177.237 665.203 177.237 665.227 177.237 C 666.154 177.23 667.079 177.309 667.99 177.476 C 668.997 177.666 669.886 177.972 670.658 178.394 C 671.509 178.85 672.253 179.49 672.834 180.269 C 673.651 181.339 674.27 182.553 674.664 183.847 C 674.954 184.824 675.1 185.837 675.096 186.858 C 675.096 188.81 674.684 192.296 673.862 197.316 C 673.299 200.767 672.57 204.647 671.681 208.957 C 671.257 211.005 670.819 213.052 670.366 215.095 C 672.698 210.494 675.61 205.821 679.107 201.081 C 682.31 196.689 686.153 192.822 690.504 189.614 C 690.714 189.46 690.924 189.31 691.137 189.159 C 695.662 185.95 700.595 184.346 705.942 184.346 C 711.977 184.346 716.946 186.544 720.852 190.936 C 723.576 194.034 725.407 197.835 726.142 201.923 C 726.534 203.989 726.725 206.089 726.712 208.194 C 726.696 211.479 726.291 214.75 725.509 217.94 C 724.891 220.498 724.089 223.008 723.114 225.449 C 720.715 231.516 717.356 237.233 713.037 242.601 C 708.719 247.967 703.614 252.327 697.716 255.673 C 691.943 258.932 685.455 260.658 678.849 260.69 C 678.626 260.693 678.404 260.695 678.183 260.695 C 675.72 260.695 673.587 260.493 671.778 260.096 C 671.017 259.93 670.271 259.713 669.544 259.44 C 667.729 258.748 666.665 258.055 666.351 257.363 C 666.287 257.226 666.256 257.078 666.253 256.929 C 666.252 256.647 666.409 256.388 666.659 256.265 C 666.869 256.14 667.165 256.057 667.543 256.01 C 667.627 256 667.711 255.992 667.796 255.988 C 668.823 255.917 670.025 255.883 671.394 255.883 C 676.879 255.883 682.123 254.524 687.126 251.805 C 692.132 249.085 696.622 245.494 700.595 241.033 C 704.573 236.568 707.691 231.62 709.953 226.182 C 711.288 223.019 712.253 219.708 712.83 216.317 C 713.172 214.255 713.346 212.167 713.346 210.076 C 713.357 208.268 713.186 206.464 712.834 204.691 C 712.418 202.571 711.653 200.537 710.569 198.675 C 709.171 196.226 706.748 194.567 703.991 194.164 C 703.21 194.03 702.418 193.966 701.624 193.97 C 699.104 193.984 696.618 194.54 694.321 195.6 C 693.18 196.118 692.082 196.726 691.033 197.421 C 688.552 199.064 686.235 200.952 684.116 203.057 C 683.091 204.065 682.107 205.116 681.162 206.206 C 678.079 209.761 675.337 213.455 672.936 217.292 C 672.015 218.76 671.138 220.255 670.302 221.775 C 669.516 223.213 668.828 224.588 668.235 225.899 C 667.975 226.476 667.725 227.057 667.488 227.646 C 665.019 238.103 662.552 248.178 660.084 257.87 C 657.615 267.56 655.252 276.346 652.99 284.225 C 652.45 286.111 651.897 287.99 651.332 289.868 C 649.713 295.238 648.21 299.809 646.822 303.573 C 644.971 308.593 643.426 311.66 642.195 312.778 C 641.56 313.446 640.686 313.823 639.771 313.823 C 639.755 313.823 639.742 313.823 639.725 313.823 Z M 736.789 192.088 L 736.789 188.322 C 737.887 188.461 739.189 188.6 740.697 188.741 C 742.104 188.87 743.694 189.002 745.459 189.131 C 745.586 189.139 745.713 189.151 745.837 189.159 C 748.717 181.628 751.8 174.34 755.091 167.3 C 758.382 160.258 761.64 153.982 764.861 148.475 C 767.296 144.314 769.654 140.787 771.932 137.898 C 772.631 137.006 773.359 136.14 774.114 135.297 C 774.749 134.587 775.416 133.908 776.113 133.264 C 778.21 131.342 780.047 130.382 781.619 130.382 C 782.661 130.381 783.673 130.75 784.476 131.427 C 784.52 131.461 784.56 131.497 784.601 131.534 C 785.169 132.024 785.571 132.686 785.75 133.419 C 785.876 133.887 785.938 134.407 785.938 134.984 C 785.925 135.679 785.835 136.372 785.67 137.045 C 785.183 139.158 784.034 141.957 782.224 145.447 C 782.027 145.832 781.825 146.211 781.619 146.593 C 779.643 150.283 777.338 154.452 774.709 159.099 C 773.458 161.314 772.195 163.525 770.926 165.731 C 767.898 171.013 765.041 176.394 762.355 181.865 C 761.065 184.487 759.809 187.127 758.588 189.787 L 762.392 189.787 L 766.197 189.787 C 770.72 189.787 775.486 189.715 780.489 189.577 C 785.494 189.437 790.532 189.088 795.603 188.532 L 795.603 192.296 C 792.246 192.67 788.886 193.015 785.521 193.337 C 782.361 193.632 779.367 193.885 776.546 194.093 C 776.147 194.122 775.747 194.149 775.348 194.179 C 769.383 194.597 764.072 194.806 759.41 194.806 L 757.868 194.806 L 756.326 194.806 C 753.173 202.196 750.5 209.795 748.307 217.606 C 746.802 222.882 745.798 228.297 745.306 233.769 C 745.114 235.975 745.018 238.19 745.015 240.404 C 745.011 241.879 745.076 243.355 745.204 244.822 C 745.479 247.746 746.045 250.106 746.904 251.902 C 747.131 252.377 747.394 252.835 747.688 253.269 C 749.472 255.848 752.419 257.138 756.531 257.138 C 760.682 257.103 764.761 256.059 768.432 254.095 C 770.912 252.809 773.375 251.124 775.818 249.031 C 776.393 248.539 776.956 248.033 777.507 247.517 C 780.999 244.208 784.144 240.545 786.89 236.576 C 790.014 232.119 792.917 227.052 795.603 221.37 L 798.277 223.463 C 794.986 231.27 790.841 238.313 785.835 244.589 C 783.049 248.115 779.924 251.353 776.512 254.254 C 774.24 256.174 771.823 257.907 769.281 259.44 C 765.815 261.558 762.04 263.107 758.097 264.031 C 755.626 264.593 753.101 264.878 750.568 264.878 C 748.767 264.892 746.969 264.701 745.208 264.315 C 741.854 263.545 739.116 261.991 736.994 259.648 C 735.461 257.913 734.303 255.865 733.602 253.642 C 732.712 250.957 732.265 247.799 732.265 244.171 C 732.265 239.732 732.857 234.548 734.039 228.617 C 734.521 226.22 735.06 223.841 735.658 221.475 C 737.921 212.48 740.766 203.241 744.192 193.76 C 742.824 193.481 741.519 193.236 740.285 193.028 C 739.052 192.818 737.887 192.506 736.789 192.088 Z M 891.434 221.37 L 893.696 224.09 C 892.151 227.777 890.423 231.384 888.515 234.892 C 887.131 237.426 885.636 239.894 884.031 242.288 C 882.402 244.731 880.59 247.042 878.609 249.201 C 876.699 251.289 874.588 253.176 872.309 254.838 C 868.06 257.903 863.33 259.44 858.121 259.44 C 854.837 259.44 852.117 258.851 849.957 257.677 C 848.982 257.154 848.094 256.477 847.323 255.673 C 845.297 253.551 844.057 250.779 843.813 247.831 C 843.754 247.241 843.724 246.646 843.724 246.052 C 843.724 243.124 844.24 240.055 845.266 236.848 C 846.295 233.639 847.289 230.328 848.248 226.913 C 848.879 224.709 849.308 222.452 849.534 220.169 C 849.637 219.11 849.689 218.044 849.689 216.977 C 849.689 213.073 848.902 210.388 847.323 208.924 C 845.919 207.621 844.112 206.853 842.214 206.756 C 841.964 206.738 841.712 206.728 841.463 206.728 C 839.107 206.75 836.784 207.261 834.631 208.234 C 833.049 208.924 831.457 209.856 829.856 211.024 C 829.398 211.359 828.949 211.705 828.506 212.062 C 826.065 214.055 823.768 216.226 821.631 218.557 C 819.553 220.818 817.592 223.189 815.756 225.658 C 811.643 231.165 807.807 236.848 804.241 242.705 C 802.757 245.145 801.276 247.587 799.799 250.032 C 798.446 252.271 797.17 254.398 795.963 256.415 C 795.568 257.073 795.175 257.732 794.781 258.392 C 792.591 258.392 790.497 258.009 788.508 257.243 C 787.595 256.898 786.73 256.431 785.934 255.858 C 785.146 255.285 784.453 254.587 783.883 253.791 C 783.89 253.609 783.914 253.424 783.958 253.245 C 784.179 252.234 784.873 250.253 786.042 247.308 C 786.625 245.834 787.199 244.355 787.762 242.875 C 788.269 241.545 788.8 240.136 789.351 238.643 C 789.933 237.07 790.509 235.498 791.078 233.92 C 793.001 228.621 794.713 223.183 796.221 217.606 C 796.853 215.286 797.369 212.937 797.767 210.566 C 798.186 208.03 798.421 205.612 798.472 203.315 C 798.481 202.989 798.483 202.662 798.483 202.335 C 798.794 201.971 799.136 201.635 799.503 201.33 C 800.253 200.694 801.207 200.059 802.363 199.422 C 802.374 199.416 802.381 199.412 802.389 199.408 C 803.8 198.62 805.356 198.137 806.96 197.988 C 807.287 197.958 807.614 197.943 807.942 197.943 C 808.672 197.934 809.4 198.021 810.106 198.205 C 811.982 198.718 813.079 199.994 813.398 202.033 C 813.465 202.478 813.498 202.931 813.495 203.381 C 813.495 205.576 812.9 209.22 811.705 214.314 C 811.685 214.399 811.663 214.484 811.643 214.573 C 810.84 217.962 809.934 221.329 808.929 224.663 C 808.293 226.783 807.618 228.895 806.914 230.992 C 810.258 225.845 813.843 220.862 817.654 216.063 C 818.218 215.352 818.784 214.648 819.357 213.945 C 822.1 210.551 825.1 207.377 828.329 204.46 C 830.158 202.812 832.069 201.268 834.061 199.826 C 836.033 198.378 838.158 197.155 840.392 196.177 C 843.328 194.879 846.491 194.199 849.689 194.179 C 851.234 194.163 852.774 194.354 854.269 194.751 C 857.206 195.508 859.732 197.406 861.306 200.034 C 863.706 203.938 864.907 208.262 864.907 213.003 C 864.921 215.856 864.594 218.701 863.935 221.475 C 863.644 222.679 863.281 223.868 862.849 225.03 C 861.684 228.18 860.458 231.309 859.171 234.412 C 858.997 234.84 858.814 235.27 858.634 235.699 C 857.514 238.313 856.815 241.093 856.564 243.933 C 856.505 244.637 856.475 245.345 856.474 246.052 C 856.474 248.572 856.906 250.446 857.77 251.677 C 857.904 251.872 858.06 252.053 858.222 252.224 C 859.287 253.31 860.72 253.942 862.228 253.99 C 862.369 253.997 862.506 254.001 862.644 254.001 C 864.486 253.982 866.302 253.535 867.946 252.693 C 869.089 252.13 870.23 251.387 871.372 250.461 C 871.91 250.025 872.426 249.564 872.926 249.085 C 876.247 245.911 879.47 241.919 882.596 237.108 C 882.699 236.952 882.8 236.797 882.9 236.64 C 886.121 231.62 888.966 226.529 891.434 221.37 Z M 588.109 221.16 L 590.782 223.253 C 587.629 231.62 583.31 239.114 577.826 245.738 C 574.73 249.514 571.262 252.96 567.479 256.024 C 565.036 257.994 562.445 259.762 559.729 261.322 C 556.418 263.245 552.871 264.727 549.184 265.729 C 546.116 266.549 542.956 266.965 539.783 266.97 C 536.829 267 533.894 266.486 531.122 265.448 C 528.19 264.313 525.534 262.548 523.33 260.277 C 518.944 255.812 516.75 249.119 516.75 240.195 C 516.75 233.221 518.087 226.423 520.76 219.801 C 523.433 213.177 526.963 207.217 531.35 201.918 C 535.739 196.618 540.605 192.399 545.951 189.263 C 548.275 187.88 550.74 186.761 553.301 185.925 C 556.045 185.028 558.906 184.568 561.786 184.557 C 563.161 184.546 564.535 184.664 565.887 184.909 C 567.365 185.191 568.662 185.639 569.782 186.254 C 571.223 187.025 572.439 188.172 573.302 189.577 C 574.464 191.433 575.328 193.47 575.858 195.602 C 576.209 197.052 576.388 198.542 576.387 200.034 C 576.402 202.043 576.147 204.046 575.627 205.984 C 575.176 207.646 574.498 209.232 573.61 210.703 C 573.06 211.64 572.374 212.492 571.579 213.227 C 570.08 214.6 568.122 215.343 566.104 215.303 C 563.776 215.303 561.786 214.259 560.141 212.167 C 561 211.688 561.769 211.069 562.425 210.333 C 563.022 209.683 563.587 208.912 564.123 208.025 C 564.635 207.169 565.089 206.282 565.488 205.369 C 566.997 201.952 567.75 198.709 567.75 195.643 C 567.751 195.156 567.722 194.67 567.659 194.187 C 567.593 193.693 567.493 193.244 567.354 192.844 C 567.226 192.463 567.047 192.103 566.824 191.773 C 566.537 191.361 566.14 191.039 565.681 190.845 C 565.076 190.571 564.305 190.429 563.365 190.416 C 563.32 190.414 563.274 190.414 563.226 190.414 C 560.105 190.414 556.91 191.603 553.642 193.986 C 553.013 194.445 552.402 194.927 551.813 195.434 C 549.576 197.367 547.515 199.495 545.65 201.801 C 543.943 203.901 542.359 206.106 540.913 208.402 C 537.556 213.7 534.813 219.278 532.688 225.136 C 531.699 227.824 530.917 230.587 530.347 233.402 C 529.795 236.119 529.513 238.885 529.5 241.66 C 529.5 245.982 530.528 249.956 532.585 253.583 C 534.338 256.673 537.485 258.446 542.026 258.903 C 542.852 258.983 543.683 259.023 544.512 259.022 C 548.397 258.998 552.247 258.262 555.873 256.845 C 557.657 256.158 559.392 255.35 561.067 254.419 C 564.67 252.404 568.017 249.951 571.036 247.115 C 573.008 245.275 574.862 243.314 576.592 241.242 C 580.581 236.451 583.879 231.107 586.39 225.372 C 587.005 223.985 587.576 222.582 588.109 221.16 Z M 521.891 221.37 L 524.359 223.253 C 521.825 229.051 518.629 234.528 514.839 239.566 C 513.406 241.455 511.883 243.271 510.273 245.008 C 506.878 248.698 503.115 252.02 499.041 254.916 C 496.72 256.558 494.287 258.035 491.764 259.335 C 487.629 261.493 483.198 263.011 478.621 263.84 C 476.273 264.252 473.893 264.46 471.51 264.46 C 469.084 264.475 466.663 264.248 464.282 263.775 C 461.477 263.194 459.003 262.247 456.858 260.929 C 455.312 259.981 453.91 258.809 452.691 257.451 C 448.511 252.78 446.419 247.027 446.419 240.195 C 446.442 236.506 446.935 232.835 447.885 229.275 C 448.696 226.208 449.753 223.216 451.046 220.324 C 454.209 213.238 458.343 206.643 463.326 200.736 C 463.346 200.712 463.367 200.686 463.385 200.663 C 466.771 196.59 470.57 192.896 474.718 189.64 C 476.529 188.229 478.408 186.916 480.351 185.707 C 482.892 184.107 485.593 182.788 488.41 181.775 C 491.701 180.586 495.163 179.971 498.653 179.956 C 501.807 179.956 504.721 180.791 507.394 182.465 C 508.688 183.298 509.695 184.524 510.273 185.967 C 511.02 187.711 511.398 189.939 511.403 192.655 C 511.403 192.672 511.403 192.693 511.403 192.714 C 511.394 197.837 509.911 202.846 507.132 207.121 C 507.016 207.306 506.898 207.488 506.776 207.669 C 503.693 212.34 499.649 216.488 494.643 220.115 C 489.639 223.741 484.155 226.704 478.192 229.005 C 473.609 230.794 468.852 232.081 464.001 232.846 C 462.806 233.029 461.607 233.177 460.404 233.294 C 460.238 234.133 460.093 234.977 459.97 235.826 C 459.901 236.305 459.839 236.785 459.786 237.266 C 459.704 238.022 459.645 238.779 459.61 239.539 C 459.591 239.966 459.581 240.395 459.581 240.823 C 459.581 242.915 459.821 245.008 460.3 247.098 C 460.782 249.19 461.637 251.106 462.871 252.85 C 463.901 254.29 465.23 255.481 466.762 256.339 C 467.136 256.554 467.519 256.75 467.909 256.929 C 468.937 257.391 470.013 257.736 471.116 257.955 C 472.136 258.165 473.235 258.299 474.409 258.36 C 474.883 258.383 475.355 258.392 475.827 258.392 C 481.722 258.392 487.549 256.685 493.306 253.269 C 499.066 249.85 504.411 245.353 509.348 239.777 C 514.283 234.198 518.466 228.065 521.891 221.37 Z M 656.794 221.37 L 659.262 223.253 C 656.727 229.051 653.531 234.528 649.74 239.566 C 648.309 241.455 646.785 243.271 645.175 245.008 C 641.781 248.698 638.018 252.02 633.945 254.916 C 631.622 256.558 629.191 258.035 626.666 259.335 C 622.532 261.493 618.102 263.011 613.523 263.84 C 611.176 264.252 608.795 264.46 606.41 264.46 C 603.986 264.475 601.567 264.248 599.185 263.775 C 596.379 263.194 593.905 262.247 591.76 260.929 C 590.214 259.981 588.812 258.809 587.594 257.451 C 583.413 252.78 581.323 247.027 581.323 240.195 C 581.346 236.506 581.836 232.835 582.785 229.275 C 583.598 226.208 584.655 223.216 585.95 220.324 C 589.112 213.238 593.246 206.643 598.228 200.736 C 598.25 200.712 598.27 200.686 598.288 200.663 C 601.673 196.59 605.471 192.896 609.621 189.64 C 611.43 188.229 613.31 186.916 615.253 185.707 C 617.795 184.107 620.495 182.788 623.313 181.775 C 626.602 180.586 630.065 179.971 633.556 179.956 C 636.71 179.956 639.622 180.791 642.295 182.465 C 643.592 183.298 644.597 184.524 645.175 185.967 C 645.924 187.711 646.302 189.939 646.306 192.655 C 646.306 192.672 646.306 192.693 646.306 192.714 C 646.298 197.837 644.813 202.846 642.035 207.121 C 641.919 207.306 641.801 207.488 641.679 207.669 C 638.594 212.34 634.551 216.488 629.545 220.115 C 624.543 223.741 619.058 226.704 613.095 229.005 C 608.512 230.794 603.754 232.081 598.903 232.846 C 597.708 233.029 596.508 233.177 595.305 233.294 C 595.143 234.133 594.995 234.977 594.872 235.826 C 594.804 236.305 594.743 236.785 594.69 237.266 C 594.607 238.022 594.547 238.779 594.512 239.539 C 594.493 239.966 594.483 240.395 594.483 240.823 C 594.483 242.915 594.724 245.008 595.204 247.098 C 595.685 249.19 596.54 251.106 597.773 252.85 C 598.805 254.29 600.133 255.481 601.665 256.339 C 602.038 256.554 602.422 256.75 602.812 256.929 C 603.84 257.391 604.915 257.736 606.017 257.955 C 607.039 258.165 608.137 258.299 609.312 258.36 C 609.787 258.383 610.259 258.392 610.73 258.392 C 616.624 258.392 622.45 256.685 628.209 253.269 C 633.967 249.85 639.314 245.353 644.249 239.777 C 649.184 234.198 653.367 228.065 656.794 221.37 Z M 940.993 221.37 L 942.844 223.463 C 939.246 234.326 934.207 242.903 927.734 249.19 C 927.068 249.838 926.38 250.465 925.672 251.072 C 922.956 253.442 919.968 255.472 916.777 257.121 C 912.303 259.448 907.357 260.67 902.335 260.695 C 898.02 260.695 894.601 259.582 892.071 257.361 C 891.46 256.821 890.9 256.22 890.406 255.57 C 888.322 252.809 887.026 249.52 886.668 246.06 C 886.554 245.086 886.497 244.105 886.497 243.124 C 886.497 240.97 886.762 238.436 887.288 235.527 C 887.567 234.006 887.886 232.495 888.245 230.992 C 889.011 227.815 889.888 224.667 890.875 221.554 C 891.503 219.563 892.17 217.585 892.873 215.618 C 894.615 210.719 896.69 205.95 899.086 201.346 C 899.242 201.048 899.398 200.75 899.557 200.453 C 900.602 198.489 901.746 196.574 902.985 194.731 C 904.214 192.911 905.474 191.275 906.775 189.824 C 907.071 189.49 907.374 189.166 907.679 188.844 C 909.464 186.987 911.221 185.706 912.952 184.999 C 913.956 184.576 915.027 184.357 916.112 184.346 C 916.752 184.341 917.386 184.459 917.982 184.693 C 918.462 184.885 918.908 185.157 919.299 185.498 C 919.866 185.99 920.268 186.651 920.449 187.384 C 920.573 187.851 920.635 188.372 920.635 188.95 C 920.635 190.502 919.722 192.952 917.893 196.304 C 917.748 196.57 917.599 196.839 917.447 197.107 C 915.621 200.341 913.519 203.989 911.134 208.051 C 910.737 208.727 910.34 209.399 909.942 210.076 C 907.064 214.955 904.561 220.081 902.436 225.449 C 900.312 230.816 899.248 235.94 899.248 240.823 C 899.244 241.908 899.29 242.994 899.383 244.077 C 899.68 247.32 900.458 249.582 901.716 250.863 C 902.539 251.68 903.528 252.294 904.617 252.665 C 905.421 252.952 906.318 253.151 907.307 253.265 C 907.977 253.339 908.651 253.375 909.325 253.372 C 911.48 253.347 913.609 252.887 915.59 252.024 C 917.2 251.35 918.842 250.424 920.516 249.246 C 921.812 248.327 923.054 247.33 924.233 246.261 C 926.041 244.608 927.705 242.798 929.209 240.857 C 932.99 236.061 936.918 229.565 940.993 221.37 Z M 378.146 185.812 C 385.263 185.391 392.325 184.292 399.239 182.52 C 399.716 182.4 400.191 182.277 400.663 182.152 C 406.407 180.648 411.985 178.545 417.305 175.88 C 418.738 175.156 420.15 174.386 421.536 173.575 C 425.806 171.112 429.673 167.992 433.009 164.332 C 434.365 162.831 435.615 161.237 436.754 159.562 C 440.594 153.914 442.512 147.185 442.512 139.376 C 442.512 131.706 440.731 125.677 437.164 121.283 C 433.685 117.006 429.092 113.808 423.912 112.05 C 423.739 111.988 423.565 111.931 423.387 111.871 C 417.767 109.989 411.873 109.047 405.703 109.047 C 403.855 112.876 402.105 116.757 400.459 120.681 C 398.455 125.433 396.453 130.539 394.451 136 C 393.517 138.546 392.606 141.1 391.718 143.665 C 387.058 157.119 382.534 171.17 378.146 185.812 Z M 471.953 224.813 C 472.631 224.471 473.306 224.127 473.976 223.775 C 478.637 221.334 483.126 218.441 487.445 215.095 C 490.142 213.025 492.636 210.697 494.896 208.145 C 496.053 206.828 497.137 205.448 498.14 204.009 C 499.506 202.075 500.584 199.944 501.334 197.685 C 502.014 195.61 502.358 193.436 502.355 191.251 C 502.358 190.802 502.33 190.358 502.274 189.914 C 502.157 189.011 501.911 188.269 501.531 187.695 C 501.295 187.344 500.967 187.067 500.584 186.894 C 500.058 186.638 499.373 186.491 498.529 186.451 C 498.365 186.443 498.202 186.439 498.036 186.439 C 496.357 186.454 494.69 186.761 493.111 187.348 C 491.821 187.809 490.497 188.45 489.147 189.267 C 488.603 189.599 488.071 189.944 487.549 190.309 C 485.375 191.837 483.328 193.547 481.432 195.423 C 479.819 197.015 478.291 198.693 476.855 200.453 C 473.428 204.638 470.345 209.239 467.601 214.259 C 465.774 217.578 464.21 221.042 462.919 224.612 C 462.363 226.16 461.868 227.731 461.432 229.32 C 464.59 228.248 468.097 226.746 471.953 224.813 Z M 606.855 224.813 C 607.534 224.471 608.207 224.127 608.879 223.775 C 613.541 221.334 618.029 218.441 622.349 215.095 C 625.045 213.025 627.538 210.697 629.8 208.145 C 630.956 206.828 632.041 205.448 633.042 204.009 C 634.41 202.075 635.487 199.944 636.237 197.685 C 636.916 195.61 637.26 193.436 637.257 191.251 C 637.26 190.802 637.233 190.358 637.178 189.914 C 637.061 189.011 636.813 188.269 636.435 187.695 C 636.198 187.344 635.869 187.067 635.487 186.894 C 634.96 186.638 634.276 186.491 633.433 186.451 C 633.267 186.443 633.103 186.439 632.94 186.439 C 631.259 186.454 629.593 186.761 628.014 187.348 C 626.722 187.809 625.399 188.45 624.049 189.267 C 623.505 189.599 622.973 189.944 622.45 190.309 C 620.276 191.837 618.233 193.547 616.336 195.423 C 614.72 197.015 613.193 198.693 611.758 200.453 C 608.33 204.638 605.248 209.239 602.504 214.259 C 600.679 217.578 599.111 221.042 597.821 224.612 C 597.265 226.16 596.77 227.731 596.334 229.32 C 599.493 228.248 602.999 226.746 606.855 224.813 Z M 968.139 175.563 C 974.446 170.403 979.963 164.546 984.693 157.993 C 989.423 151.437 993.091 145.129 995.696 139.061 C 998.303 132.997 999.602 128.218 999.602 124.735 C 999.602 124.036 999.569 123.548 999.5 123.27 C 999.485 123.202 999.459 123.136 999.424 123.077 C 999.348 122.947 999.232 122.876 999.069 122.856 C 999.043 122.852 999.014 122.852 998.986 122.852 C 997.653 122.852 995.375 125.165 992.153 129.793 C 992.066 129.918 991.979 130.045 991.893 130.173 C 989.635 133.453 987.178 137.439 984.519 142.136 C 983.139 144.578 981.791 147.04 980.478 149.521 C 977.445 155.257 974.588 161.083 971.906 166.998 C 970.619 169.836 969.361 172.692 968.139 175.563 Z M 924.131 169.288 C 923.173 168.73 922.452 167.823 921.971 166.568 C 921.862 166.281 921.761 165.995 921.662 165.706 C 921.393 164.897 921.256 164.283 921.253 163.864 C 921.253 163.857 921.253 163.853 921.253 163.849 C 921.26 163.467 921.31 163.086 921.4 162.713 C 921.68 161.506 922.35 159.895 923.411 157.887 C 924.222 156.368 925.093 154.882 926.024 153.437 C 926.929 152.033 927.876 150.656 928.861 149.312 C 930.104 147.6 931.461 145.978 932.914 144.451 C 933.846 143.474 934.827 142.55 935.853 141.676 C 936.498 141.124 937.178 140.62 937.887 140.16 C 939.577 139.08 941.163 138.54 942.639 138.54 C 943.503 138.542 944.34 138.832 945.022 139.37 C 945.235 139.531 945.435 139.71 945.62 139.898 C 945.937 140.232 946.195 140.621 946.375 141.047 C 946.712 141.795 946.946 142.763 947.077 143.951 C 947.115 144.307 947.145 144.665 947.163 145.024 C 942.228 149.344 937.91 153.46 934.207 157.365 C 931.06 160.677 928.079 164.154 925.278 167.776 C 924.892 168.276 924.51 168.779 924.131 169.288 Z" vector-effect="non-scaling-stroke" style=""/>
  </g>
</svg>